<?xml version="1.0" encoding="UTF-8"?>
<svg version="1.1" xmlns="http://www.w3.org/2000/svg" width="160" height="160">
<path d="M0 0 C52.8 0 105.6 0 160 0 C160 52.8 160 105.6 160 160 C107.2 160 54.4 160 0 160 C0 107.2 0 54.4 0 0 Z " fill="#FDFDFD" transform="translate(0,0)"/>
<path d="M0 0 C7.11154288 6.55010528 12.52406299 14.84498154 14.0625 24.5 C14.1875 28.125 14.1875 28.125 12.1875 31.125 C9.94091797 31.55737305 9.94091797 31.55737305 7.1796875 31.63671875 C5.70048828 31.68989258 5.70048828 31.68989258 4.19140625 31.74414062 C2.64259766 31.77797852 2.64259766 31.77797852 1.0625 31.8125 C0.02222656 31.84666016 -1.01804687 31.88082031 -2.08984375 31.91601562 C-4.66395507 31.99867058 -7.23771829 32.06776155 -9.8125 32.125 C-10.1425 34.105 -10.4725 36.085 -10.8125 38.125 C-10.16176514 38.10928955 -9.51103027 38.0935791 -8.84057617 38.07739258 C-5.89380576 38.01505351 -2.94717402 37.97601316 0 37.9375 C1.02416016 37.91236328 2.04832031 37.88722656 3.10351562 37.86132812 C4.57788086 37.84682617 4.57788086 37.84682617 6.08203125 37.83203125 C6.98800049 37.8163208 7.89396973 37.80061035 8.82739258 37.78442383 C11.1875 38.125 11.1875 38.125 13.01049805 39.4519043 C14.1875 41.125 14.1875 41.125 14.125 44.1875 C11.6547518 56.53874098 4.47680674 66.9116923 -5.8125 74.125 C-17.97947856 80.83106859 -31.41938945 83.65915985 -45.125 80 C-58.20302297 75.37272609 -67.23098922 67.14563498 -73.8125 55.125 C-75.02498199 52.46550483 -75.92870289 49.92369085 -76.8125 47.125 C-76.99554688 46.55910156 -77.17859375 45.99320313 -77.3671875 45.41015625 C-79.89477206 32.43965653 -77.69419061 19.63144783 -70.5859375 8.5703125 C-62.98736545 -1.90701372 -51.82338784 -9.52515155 -38.87109375 -11.6640625 C-24.52574147 -13.13398474 -11.26187452 -9.04399989 0 0 Z " fill="#030361" transform="translate(109.8125,49.875)"/>
<path d="M0 0 C7.11154288 6.55010528 12.52406299 14.84498154 14.0625 24.5 C14.1875 28.125 14.1875 28.125 12.1875 31.125 C9.72900391 31.58911133 9.72900391 31.58911133 6.6640625 31.70703125 C5.560625 31.75150391 4.4571875 31.79597656 3.3203125 31.84179688 C2.16273437 31.87337891 1.00515625 31.90496094 -0.1875 31.9375 C-1.33734375 31.98841797 -2.4871875 32.03933594 -3.671875 32.09179688 C-12.74765786 32.40384302 -12.74765786 32.40384302 -16.8125 30.125 C-18.95757783 30.09368331 -18.95757783 30.09368331 -21.0625 30.5 C-22.3 30.70625 -23.5375 30.9125 -24.8125 31.125 C-24.8125 31.785 -24.8125 32.445 -24.8125 33.125 C-25.8025 32.795 -26.7925 32.465 -27.8125 32.125 C-27.4825 30.805 -27.1525 29.485 -26.8125 28.125 C-25.1625 28.125 -23.5125 28.125 -21.8125 28.125 C-22.04464574 24.10114056 -22.20466821 21.80434141 -24.9375 18.75 C-28.47103568 16.75278418 -30.73761581 16.0535108 -34.8125 16.125 C-38.32344117 18.17856936 -40.16702528 19.45108947 -41.62890625 23.2421875 C-42.12214552 25.18065231 -42.47824466 27.15289347 -42.8125 29.125 C-40.8325 29.125 -38.8525 29.125 -36.8125 29.125 C-36.8125 30.445 -36.8125 31.765 -36.8125 33.125 C-38.7925 33.125 -40.7725 33.125 -42.8125 33.125 C-42.8125 34.445 -42.8125 35.765 -42.8125 37.125 C-40.8325 37.125 -38.8525 37.125 -36.8125 37.125 C-36.8125 38.445 -36.8125 39.765 -36.8125 41.125 C-38.7925 41.125 -40.7725 41.125 -42.8125 41.125 C-41.86325815 47.03656254 -41.86325815 47.03656254 -38.1875 51.5 C-37.40375 52.03625 -36.62 52.5725 -35.8125 53.125 C-35.8125 53.785 -35.8125 54.445 -35.8125 55.125 C-36.4725 55.125 -37.1325 55.125 -37.8125 55.125 C-37.8125 55.785 -37.8125 56.445 -37.8125 57.125 C-36.8225 57.125 -35.8325 57.125 -34.8125 57.125 C-34.4825 56.465 -34.1525 55.805 -33.8125 55.125 C-33.68875 55.764375 -33.565 56.40375 -33.4375 57.0625 C-33.23125 57.743125 -33.025 58.42375 -32.8125 59.125 C-31.8225 59.62 -31.8225 59.62 -30.8125 60.125 C-31.4725 61.115 -32.1325 62.105 -32.8125 63.125 C-33.8025 62.63 -33.8025 62.63 -34.8125 62.125 C-34.8125 62.785 -34.8125 63.445 -34.8125 64.125 C-40.37468934 63.71801054 -43.89529953 61.95597787 -47.8125 58.125 C-52.90212809 50.78587107 -53.58950328 43.86012196 -53.4375 35.125 C-53.45683594 34.01382813 -53.47617187 32.90265625 -53.49609375 31.7578125 C-53.4470061 23.41291263 -51.87034798 16.20473121 -45.82055664 10.12231445 C-40.46461184 5.65622672 -34.91766349 5.29398127 -28.12890625 5.6015625 C-22.0130595 6.56684338 -18.59709798 9.2946431 -14.375 13.625 C-12.8125 16.125 -12.8125 16.125 -11.8125 21.125 C-7.5225 21.125 -3.2325 21.125 1.1875 21.125 C-3.3261453 10.83388873 -9.43230922 5.4086336 -19.8125 1.125 C-28.24508755 -2.07240302 -36.60816341 -2.08591812 -45.0625 1.125 C-54.84316461 5.71170533 -61.85221498 12.83490309 -65.91015625 22.828125 C-68.3943177 31.90445514 -68.2352221 42.43177047 -64.125 50.9375 C-61.77988965 54.91161475 -59.42461015 58.20091083 -55.8125 61.125 C-55.23886719 61.61355469 -54.66523437 62.10210937 -54.07421875 62.60546875 C-49.07070159 66.66643959 -43.87370619 69.01351424 -37.8125 71.125 C-38.4725 71.785 -39.1325 72.445 -39.8125 73.125 C-39.49208603 75.72780568 -39.49208603 75.72780568 -38.8125 78.125 C-41.47373843 79.43211004 -43.13374903 80.24314437 -46.1015625 79.7265625 C-59.62232104 74.07407147 -69.59478706 65.40139139 -75.25 51.6875 C-75.80435434 50.17856241 -76.3288101 48.65805103 -76.8125 47.125 C-77.00457031 46.53847656 -77.19664063 45.95195313 -77.39453125 45.34765625 C-79.83661516 32.36124742 -77.7034454 19.64584918 -70.5859375 8.5703125 C-62.98736545 -1.90701372 -51.82338784 -9.52515155 -38.87109375 -11.6640625 C-24.52574147 -13.13398474 -11.26187452 -9.04399989 0 0 Z " fill="#040461" transform="translate(109.8125,49.875)"/>
<path d="M0 0 C7.0392243 3.84929734 13.3362253 9.52895852 17.0859375 16.6875 C17.0859375 17.6775 17.0859375 18.6675 17.0859375 19.6875 C12.7959375 19.6875 8.5059375 19.6875 4.0859375 19.6875 C3.5290625 18.45 2.9721875 17.2125 2.3984375 15.9375 C-0.14347871 10.85366758 -3.65730405 7.83552026 -8.9140625 5.6875 C-15.13438184 4.95975328 -21.82447237 4.50410324 -27.4765625 7.5625 C-32.56830266 11.67927334 -35.39442212 17.34117462 -36.39379883 23.77685547 C-36.58354013 27.09468954 -36.59687763 30.36505743 -36.5390625 33.6875 C-36.55839844 34.79867187 -36.57773437 35.90984375 -36.59765625 37.0546875 C-36.5534377 44.57184042 -35.24753349 50.44544954 -30.9140625 56.6875 C-28.01252699 59.23548166 -28.01252699 59.23548166 -24.9140625 60.6875 C-24.1303125 61.1 -23.3465625 61.5125 -22.5390625 61.9375 C-22.0028125 62.185 -21.4665625 62.4325 -20.9140625 62.6875 C-20.9140625 64.9975 -20.9140625 67.3075 -20.9140625 69.6875 C-31.27879277 68.04230472 -39.22238579 63.1033679 -45.4765625 54.55078125 C-52.62107524 44.16032402 -53.61106458 34.04525432 -51.3671875 21.671875 C-48.08671352 12.07803602 -40.35655697 4.5616972 -31.4765625 0.0625 C-20.74489366 -4.77864396 -10.88450144 -4.63843161 0 0 Z " fill="#07CBFC" transform="translate(93.9140625,51.3125)"/>
<path d="M0 0 C7.39323466 2.401624 13.7664869 9.04574903 18.9375 14.625 C19.51757812 15.18832031 20.09765625 15.75164063 20.6953125 16.33203125 C31.29833528 27.20532716 39.78900309 44.02827477 40.3125 59.375 C39.9375 62.625 39.9375 62.625 37.9375 64.625 C35 65.0625 35 65.0625 31.9375 64.625 C29.18943522 61.00074065 28.44331968 57.74870335 27.75 53.3125 C24.14462165 35.65539065 14.15931179 22.62217758 -0.25 12.25 C-1.11564575 11.67886475 -1.11564575 11.67886475 -1.9987793 11.09619141 C-3.60546875 9.9765625 -3.60546875 9.9765625 -6.0625 7.625 C-6.61328125 4.4609375 -6.61328125 4.4609375 -6.0625 1.625 C-3.0625 -0.375 -3.0625 -0.375 0 0 Z " fill="#06065F" transform="translate(116.0625,16.375)"/>
<path d="M0 0 C2.7058031 1.41479901 3.8820922 2.62381076 6 5 C6.375 8.8125 6.375 8.8125 6 12 C4.35 12 2.7 12 1 12 C1 13.32 1 14.64 1 16 C2.98 16.33 4.96 16.66 7 17 C7 18.32 7 19.64 7 21 C5.02 21.33 3.04 21.66 1 22 C1 22.66 1 23.32 1 24 C2.98 24.33 4.96 24.66 7 25 C6.58634898 30.27405053 5.71026864 33.17729898 2 37 C-1.22859847 38.61429923 -4.50993653 38.59570657 -8 38 C-11.02508145 36.26397895 -13.41790069 34.16419863 -15 31 C-15.039992 29.00039988 -15.04346799 26.99952758 -15 25 C-13.02 25 -11.04 25 -9 25 C-9 23.68 -9 22.36 -9 21 C-10.98 21 -12.96 21 -15 21 C-15 19.68 -15 18.36 -15 17 C-13.02 17 -11.04 17 -9 17 C-9 15.68 -9 14.36 -9 13 C-10.98 13 -12.96 13 -15 13 C-15.45796457 9.87057543 -15.50559016 7.76774802 -13.734375 5.078125 C-9.20630831 -0.24125432 -7.18814378 -1.67723355 0 0 Z " fill="#F46209" transform="translate(82,66)"/>
<path d="M0 0 C11.75111882 3.91703961 21.98705164 16.38833591 27.375 27.125 C30.14709348 34.02599946 33.09632121 41.61216218 32.375 49.125 C30.375 51.125 30.375 51.125 27.25 51.25 C26.30125 51.20875 25.3525 51.1675 24.375 51.125 C22.59010356 47.21522684 21.16540612 43.4680927 20.0625 39.3125 C16.79662633 28.24202566 9.040702 17.07726653 -1.125 11.375 C-4.14883103 9.67296337 -4.50380082 9.44394521 -5.8125 6 C-5.625 3.125 -5.625 3.125 -4.5625 1.1875 C-2.625 0.125 -2.625 0.125 0 0 Z " fill="#05045E" transform="translate(107.625,29.875)"/>
<path d="M0 0 C10.82506907 -0.79726368 19.97748455 0.58457089 28.8984375 7.125 C33.3023796 10.94777672 37.28091845 14.80902614 40 20 C40 20.99 40 21.98 40 23 C35.71 23 31.42 23 27 23 C26.443125 21.7625 25.88625 20.525 25.3125 19.25 C22.77058379 14.16616758 19.25675845 11.14802026 14 9 C7.77968066 8.27225328 1.08959013 7.81660324 -4.5625 10.875 C-9.63307376 14.96845113 -12.46372247 20.66758897 -13.49291992 27.06298828 C-13.70916306 30.25806072 -13.79499135 33.42286309 -13.8125 36.625 C-13.83763672 37.72457031 -13.86277344 38.82414062 -13.88867188 39.95703125 C-13.94696211 42.63838185 -13.98366661 45.31812194 -14 48 C-14.33 48 -14.66 48 -15 48 C-15 39.75 -15 31.5 -15 23 C-16.32 23.33 -17.64 23.66 -19 24 C-20.33333333 24.33333333 -21.66666667 24.66666667 -23 25 C-18.06821121 13.42926476 -11.57073524 6.93178879 0 2 C0 1.34 0 0.68 0 0 Z " fill="#0EBDF1" transform="translate(71,48)"/>
<path d="M0 0 C0 0.33 0 0.66 0 1 C-0.6290625 1.14695313 -1.258125 1.29390625 -1.90625 1.4453125 C-11.27288167 3.8998214 -18.60678177 8.85700008 -24 17 C-29.0678312 26.09267866 -30.69269578 34.77530965 -28.30078125 44.984375 C-25.29286518 54.17311438 -20.11646145 61.74856826 -11.46484375 66.34765625 C-8.99048408 67.59701648 -6.50487802 68.81322284 -4 70 C-4 70.33 -4 70.66 -4 71 C-12.41604183 70.69396212 -17.42333093 67.07759897 -23.6875 61.6875 C-32.75281334 51.15213584 -34.86928539 42.7042734 -34.17773438 29.11132812 C-33.35530386 19.3415766 -27.1549248 12.26300952 -20 6 C-13.52020653 1.67736143 -7.82264913 -0.90261336 0 0 Z " fill="#EBF1F3" transform="translate(76,49)"/>
<path d="M0 0 C4.29 0 8.58 0 13 0 C9.03206458 9.91983854 2.66707093 16.37361606 -7 21 C-9.81377996 21.73883845 -12.07098178 21.94473551 -15 22 C-15 19.69 -15 17.38 -15 15 C-14.39671875 14.70867187 -13.7934375 14.41734375 -13.171875 14.1171875 C-6.22895138 10.55613958 -3.49772749 6.99545499 0 0 Z " fill="#0BBFF5" transform="translate(99,98)"/>
<path d="M0 0 C2.26116373 1.49266364 4.02328303 3.11970825 6 5 C5.67 5.66 5.34 6.32 5 7 C3.68 6.67 2.36 6.34 1 6 C1 5.34 1 4.68 1 4 C-1.4224537 4.93728602 -1.4224537 4.93728602 -2.4375 8.5 C-3.2109375 10.2325 -3.2109375 10.2325 -4 12 C-4.99 12.33 -5.98 12.66 -7 13 C-7.33 17.29 -7.66 21.58 -8 26 C-8.66 26 -9.32 26 -10 26 C-8.65226477 32.89259235 -8.65226477 32.89259235 -4 38 C-8.20475835 37.80442984 -9.74586331 37.23756256 -12.875 34.3125 C-15.15847105 30.7529716 -15.49139215 29.12769407 -15 25 C-13.02 25 -11.04 25 -9 25 C-9 23.68 -9 22.36 -9 21 C-10.98 21 -12.96 21 -15 21 C-15 19.68 -15 18.36 -15 17 C-13.02 17 -11.04 17 -9 17 C-9 15.68 -9 14.36 -9 13 C-10.98 13 -12.96 13 -15 13 C-15.45796457 9.87057543 -15.50559016 7.76774802 -13.734375 5.078125 C-9.20630831 -0.24125432 -7.18814378 -1.67723355 0 0 Z " fill="#EE6713" transform="translate(82,66)"/>
<path d="M0 0 C7.37161757 0.93820587 12.33141361 7.10976368 17.08984375 12.41015625 C18.4375 14.4375 18.4375 14.4375 19.4375 19.4375 C15.1475 19.4375 10.8575 19.4375 6.4375 19.4375 C5.880625 18.2 5.32375 16.9625 4.75 15.6875 C3.27587679 12.68660632 2.4439372 11.44258988 -0.25 9.3125 C-2.5625 7.4375 -2.5625 7.4375 -3.4375 4.25 C-3.47875 3.321875 -3.52 2.39375 -3.5625 1.4375 C-2.5625 0.4375 -2.5625 0.4375 0 0 Z " fill="#07C5FA" transform="translate(91.5625,51.5625)"/>
<path d="M0 0 C2.13586678 3.20380017 2.23132175 4.01939967 2.125 7.6875 C2.10695313 8.49574219 2.08890625 9.30398437 2.0703125 10.13671875 C2.03550781 11.05904297 2.03550781 11.05904297 2 12 C0.68 12.33 -0.64 12.66 -2 13 C-2 13.66 -2 14.32 -2 15 C-3.65 15.33 -5.3 15.66 -7 16 C-7.08114106 14.22992286 -7.13925505 12.45877902 -7.1875 10.6875 C-7.22230469 9.70136719 -7.25710937 8.71523437 -7.29296875 7.69921875 C-7 5 -7 5 -5.625 3.21875 C-3.83721022 1.87790766 -2.0368174 0.91305607 0 0 Z " fill="#080866" transform="translate(40,77)"/>
<path d="M0 0 C0.804375 1.11375 0.804375 1.11375 1.625 2.25 C5.0875454 6.25926309 9.21651101 8.79223585 14 11 C14 13.31 14 15.62 14 18 C11 17 11 17 8 15 C7.27683594 14.53722656 6.55367187 14.07445313 5.80859375 13.59765625 C5.02613281 13.09105469 4.24367188 12.58445312 3.4375 12.0625 C2.65246094 11.55847656 1.86742187 11.05445312 1.05859375 10.53515625 C-1 9 -1 9 -3 6 C-2.01 5.34 -1.02 4.68 0 4 C0 2.68 0 1.36 0 0 Z " fill="#12C4F4" transform="translate(59,103)"/>
<path d="M0 0 C8.05364285 -0.33608711 14.49783264 -0.0517291 22 3 C21.34 3.66 20.68 4.32 20 5 C19.34 5 18.68 5 18 5 C18 6.65 18 8.3 18 10 C12.72 9.34 7.44 8.68 2 8 C4 6 4 6 6.625 5.875 C7.40875 5.91625 8.1925 5.9575 9 6 C9.33 4.68 9.66 3.36 10 2 C6.7 1.67 3.4 1.34 0 1 C0 0.67 0 0.34 0 0 Z " fill="#1CADE4" transform="translate(71,48)"/>
<path d="M0 0 C0.66 0.33 1.32 0.66 2 1 C1.649375 1.886875 1.29875 2.77375 0.9375 3.6875 C-0.25567174 6.86556116 -0.25567174 6.86556116 0.625 9.5625 C1 12 1 12 -0.8125 14.8125 C-1.534375 15.534375 -2.25625 16.25625 -3 17 C-5 17 -5 17 -6.75 15.3125 C-8 13 -8 13 -7.1875 10.25 C-6.795625 9.5075 -6.40375 8.765 -6 8 C-6.99 7.67 -7.98 7.34 -9 7 C-3.51752022 1.21293801 -3.51752022 1.21293801 0 0 Z " fill="#0A0965" transform="translate(71,56)"/>
<path d="M0 0 C1.32 0.33 2.64 0.66 4 1 C4 1.99 4 2.98 4 4 C5.65 3.34 7.3 2.68 9 2 C11.29633824 5.44450737 11.54016485 7.93812283 12 12 C10.35 12.33 8.7 12.66 7 13 C6.01364163 11.58833114 5.03618745 10.17043816 4.0625 8.75 C3.51722656 7.96109375 2.97195312 7.1721875 2.41015625 6.359375 C1.10377559 4.17363007 0.45019489 2.4846199 0 0 Z " fill="#0FC3F3" transform="translate(48,96)"/>
<path d="M0 0 C0.99 0.33 1.98 0.66 3 1 C2.67 5.62 2.34 10.24 2 15 C0.68 15 -0.64 15 -2 15 C-2.05386629 12.87527424 -2.09273071 10.75016348 -2.125 8.625 C-2.14820313 7.44164063 -2.17140625 6.25828125 -2.1953125 5.0390625 C-2 2 -2 2 0 0 Z " fill="#F7F9F9" transform="translate(44,74)"/>
<path d="M0 0 C1.231394 3.69418201 0.64432764 6.2056261 0 10 C0.66 10.33 1.32 10.66 2 11 C1 12 1 12 -2 12.125 C-5 12 -5 12 -6 11 C-5.91062197 9.47480724 -5.75462854 7.95318071 -5.5625 6.4375 C-5.46066406 5.61121094 -5.35882813 4.78492187 -5.25390625 3.93359375 C-5.17011719 3.29550781 -5.08632812 2.65742187 -5 2 C-4.67 2.66 -4.34 3.32 -4 4 C-3.34 4 -2.68 4 -2 4 C-1.67 3.01 -1.34 2.02 -1 1 C-0.67 0.67 -0.34 0.34 0 0 Z " fill="#010166" transform="translate(153,69)"/>
<path d="M0 0 C1.32 0 2.64 0 4 0 C4.25523438 0.90492187 4.25523438 0.90492187 4.515625 1.828125 C5.93548248 6.51063372 7.03218406 9.85311149 11 13 C6.79524165 12.80442984 5.25413669 12.23756256 2.125 9.3125 C-0.15847105 5.7529716 -0.49139215 4.12769407 0 0 Z " fill="#EFEDEC" transform="translate(67,91)"/>
<path d="M0 0 C0.721875 0.103125 1.44375 0.20625 2.1875 0.3125 C1.40375 0.993125 0.62 1.67375 -0.1875 2.375 C-3.27100521 5.82558916 -3.85607515 7.87816662 -4.8125 12.3125 C-6.1325 12.3125 -7.4525 12.3125 -8.8125 12.3125 C-8.56308473 8.07244038 -8.17695139 5.78831154 -5.5625 2.375 C-2.8125 0.3125 -2.8125 0.3125 0 0 Z " fill="#F7F5F0" transform="translate(75.8125,65.6875)"/>
<path d="M0 0 C3.96 1.98 3.96 1.98 8 4 C8 6.31 8 8.62 8 11 C4.36482919 9.7882764 1.29773221 8.10193849 -1 5 C-0.6875 2.3125 -0.6875 2.3125 0 0 Z " fill="#1BB9EB" transform="translate(65,110)"/>
<path d="M0 0 C1.65 0.33 3.3 0.66 5 1 C4.51171875 7.0546875 4.51171875 7.0546875 4 9 C1 11 1 11 -2 11 C-2 11.66 -2 12.32 -2 13 C-2.99 12.67 -3.98 12.34 -5 12 C-4.67 10.68 -4.34 9.36 -4 8 C-2.35 8 -0.7 8 1 8 C0.67 5.36 0.34 2.72 0 0 Z " fill="#1F0D4E" transform="translate(87,70)"/>
<path d="M0 0 C0.33 0 0.66 0 1 0 C1 3.96 1 7.92 1 12 C0.34 12 -0.32 12 -1 12 C-1.33 12.99 -1.66 13.98 -2 15 C-2 13.68 -2 12.36 -2 11 C-1.34 11 -0.68 11 0 11 C0 9.68 0 8.36 0 7 C-1.98 7 -3.96 7 -6 7 C-6 5.68 -6 4.36 -6 3 C-4.02 3 -2.04 3 0 3 C0 2.01 0 1.02 0 0 Z " fill="#C0683D" transform="translate(73,80)"/>
<path d="M0 0 C3.60239038 3.13756581 3.9957244 3.97862202 5 9 C0.71 9 -3.58 9 -8 9 C-7.67 8.34 -7.34 7.68 -7 7 C-5.35 7 -3.7 7 -2 7 C-1.67 6.01 -1.34 5.02 -1 4 C-0.34 4 0.32 4 1 4 C0.67 2.68 0.34 1.36 0 0 Z " fill="#14B8F0" transform="translate(106,62)"/>
<path d="M0 0 C6.14689273 0.36881356 8.69027374 1.90050429 13 6 C12.67 6.66 12.34 7.32 12 8 C10.68 7.67 9.36 7.34 8 7 C8 6.34 8 5.68 8 5 C7.01 5.33 6.02 5.66 5 6 C4.34 5.34 3.68 4.68 3 4 C3 3.01 3 2.02 3 1 C2.01 0.67 1.02 0.34 0 0 Z " fill="#DE6727" transform="translate(75,65)"/>
<path d="M0 0 C1.65 0.33 3.3 0.66 5 1 C5.33 2.65 5.66 4.3 6 6 C4.35 6.33 2.7 6.66 1 7 C0.01 5.35 -0.98 3.7 -2 2 C-1.34 2 -0.68 2 0 2 C0 1.34 0 0.68 0 0 Z " fill="#09CAF7" transform="translate(54,102)"/>
<path d="M0 0 C2.31 0.33 4.62 0.66 7 1 C7 1.99 7 2.98 7 4 C5.68 4 4.36 4 3 4 C1.2488427 5.4166747 1.2488427 5.4166747 0 7 C-0.66 6.34 -1.32 5.68 -2 5 C-1.34 3.35 -0.68 1.7 0 0 Z " fill="#080865" transform="translate(126,27)"/>
<path d="M0 0 C0 0.33 0 0.66 0 1 C-1.03060547 1.29003906 -1.03060547 1.29003906 -2.08203125 1.5859375 C-2.98308594 1.84632812 -3.88414063 2.10671875 -4.8125 2.375 C-5.70582031 2.63023438 -6.59914063 2.88546875 -7.51953125 3.1484375 C-10.20467896 3.95266661 -10.20467896 3.95266661 -13 6 C-15.1875 5.625 -15.1875 5.625 -17 5 C-11.38930449 0.42832218 -7.05082028 -0.23901086 0 0 Z " fill="#DEEAEE" transform="translate(76,49)"/>
<path d="M0 0 C-0.33 1.32 -0.66 2.64 -1 4 C-2.98 4.33 -4.96 4.66 -7 5 C-7 4.34 -7 3.68 -7 3 C-7.66 3 -8.32 3 -9 3 C-9 2.34 -9 1.68 -9 1 C-5.8035914 -0.06546953 -3.34252724 -0.07427838 0 0 Z " fill="#02CBFD" transform="translate(81,50)"/>
<path d="M0 0 C0.99 0.33 1.98 0.66 3 1 C3 1.99 3 2.98 3 4 C3.99 3.67 4.98 3.34 6 3 C6 3.66 6 4.32 6 5 C6.66 5.33 7.32 5.66 8 6 C7 7 7 7 4 7.125 C1 7 1 7 0 6 C-0.04080783 4.00041636 -0.04254356 1.99954746 0 0 Z " fill="#010153" transform="translate(147,74)"/>
<path d="M0 0 C4.03520597 1.58962659 8.01811282 3.28232318 12 5 C12 5.33 12 5.66 12 6 C6.80408388 5.55966813 3.33664919 5.11696661 -1 2 C-0.67 1.34 -0.34 0.68 0 0 Z " fill="#DAE6EB" transform="translate(60,114)"/>
<path d="M0 0 C2.02408755 0.09002398 4.04544287 0.24641038 6.0625 0.4375 C7.71958984 0.59025391 7.71958984 0.59025391 9.41015625 0.74609375 C10.26480469 0.82988281 11.11945313 0.91367187 12 1 C12 1.33 12 1.66 12 2 C10.78763672 2.19916016 10.78763672 2.19916016 9.55078125 2.40234375 C8.48214844 2.57894531 7.41351563 2.75554688 6.3125 2.9375 C5.25675781 3.11152344 4.20101562 3.28554688 3.11328125 3.46484375 C0.39750396 3.93167121 -2.30124235 4.44422616 -5 5 C-5.33 4.01 -5.66 3.02 -6 2 C-4.7934375 1.7834375 -4.7934375 1.7834375 -3.5625 1.5625 C-1.07896294 1.25864751 -1.07896294 1.25864751 0 0 Z " fill="#010153" transform="translate(68,46)"/>
<path d="M0 0 C2.31 0.33 4.62 0.66 7 1 C7 2.32 7 3.64 7 5 C5.35 5.33 3.7 5.66 2 6 C1.34 4.02 0.68 2.04 0 0 Z " fill="#FB6203" transform="translate(80,93)"/>
<path d="M0 0 C0.66 0.33 1.32 0.66 2 1 C-0.343708 4.515562 -2.13571362 5.42274025 -6 7 C-6.99 6.67 -7.98 6.34 -9 6 C-6.03 4.02 -3.06 2.04 0 0 Z " fill="#040F6A" transform="translate(71,56)"/>
<path d="M0 0 C0.99 0.33 1.98 0.66 3 1 C2.07347299 2.17539996 1.13336613 3.34010577 0.1875 4.5 C-0.33457031 5.1496875 -0.85664062 5.799375 -1.39453125 6.46875 C-3 8 -3 8 -6 8 C-4.02 5.36 -2.04 2.72 0 0 Z " fill="#ECF9FC" transform="translate(58,54)"/>
<path d="M0 0 C1.98 0 3.96 0 6 0 C6 1.32 6 2.64 6 4 C4.02 4 2.04 4 0 4 C0 2.68 0 1.36 0 0 Z " fill="#070253" transform="translate(83,87)"/>
<path d="M0 0 C1.65 0 3.3 0 5 0 C5.33 0.99 5.66 1.98 6 3 C7.65 3 9.3 3 11 3 C10.34 3.66 9.68 4.32 9 5 C5.61702587 4.82194873 4.23727939 4.21162756 1.6875 1.9375 C1.130625 1.298125 0.57375 0.65875 0 0 Z " fill="#DF6B29" transform="translate(73,99)"/>
<path d="M0 0 C1.98 0 3.96 0 6 0 C6 1.32 6 2.64 6 4 C4.02 4 2.04 4 0 4 C0.66 3.67 1.32 3.34 2 3 C2 2.34 2 1.68 2 1 C1.34 0.67 0.68 0.34 0 0 Z " fill="#040251" transform="translate(67,87)"/>
<path d="M0 0 C0 1.65 0 3.3 0 5 C-1.65 5 -3.3 5 -5 5 C-4.6875 3.0625 -4.6875 3.0625 -4 1 C-1 0 -1 0 0 0 Z " fill="#F7650F" transform="translate(88,73)"/>
<path d="M0 0 C2.0625 0.4375 2.0625 0.4375 4 1 C3 4 3 4 0.9375 5.1875 C0.298125 5.455625 -0.34125 5.72375 -1 6 C-1.042721 4.33388095 -1.04063832 2.66617115 -1 1 C-0.67 0.67 -0.34 0.34 0 0 Z " fill="#10105C" transform="translate(104,118)"/>
<path d="M0 0 C1.65 0 3.3 0 5 0 C5 1.32 5 2.64 5 4 C3.02 4 1.04 4 -1 4 C-0.67 2.68 -0.34 1.36 0 0 Z " fill="#A34A2F" transform="translate(84,83)"/>
<path d="M0 0 C0.33 1.32 0.66 2.64 1 4 C0.01 4 -0.98 4 -2 4 C-2 4.66 -2 5.32 -2 6 C-3.32 6 -4.64 6 -6 6 C-6 5.01 -6 4.02 -6 3 C-4.02 3 -2.04 3 0 3 C0 2.01 0 1.02 0 0 Z " fill="#CAAEA5" transform="translate(73,80)"/>
<path d="M0 0 C-2.39509338 2.89932357 -4.31245243 3.50168276 -8 4 C-7 1 -7 1 -4.5625 -0.25 C-2 -1 -2 -1 0 0 Z " fill="#17C9F0" transform="translate(71,52)"/>
</svg>
